# xmcd CD database file
#
# Track frame offsets:
#	150
#	18804
#	36808
#	55721
#	70433
#	89334
#	108435
#	110789
#	126710
#	146295
#	168954
#	189706
#	212196
#	236673
#	252719
#	260821
#	283905
#	300827
#	317208
#
# Disc length: 4412 seconds
#
# Revision: 3
# Processed by: cddbd v1.4PL0 Copyright (c) Steve Scherf et al.
# Submitted via: CDex 1.50beta9
#
DISCID=25113a13
DTITLE=Xzibit - Man vs. Machine
DYEAR=2002
DGENRE=Ballad
TTITLE0=Release Date
TTITLE1=Symphony In X Major
TTITLE2=Multiply
TTITLE3=Break Yourself
TTITLE4=Heart Of Man
TTITLE5=Harder
TTITLE6=Paul
TTITLE7=Choke Me, Spank Me (Pull My Hair)
TTITLE8=Losin Your Mind
TTITLE9=From BK To LA
TTITLE10=My Name
TTITLE11=Gambler
TTITLE12=Missin U
TTITLE13=Right On
TTITLE14=Bitch Ass Niggaz (Interlude)
TTITLE15=Enemies
TTITLE16=My Life, My World
TTITLE17=What A Mess
TTITLE18=(Hit U) Where It Hurts
EXTD=YEAR: 2002
EXTT0=
EXTT1=
EXTT2=
EXTT3=
EXTT4=
EXTT5=
EXTT6=
EXTT7=
EXTT8=
EXTT9=
EXTT10=
EXTT11=
EXTT12=
EXTT13=
EXTT14=
EXTT15=
EXTT16=
EXTT17=
EXTT18=
PLAYORDER=
